<svg id="Capa_1" enable-background="new 0 0 510.033 510.033" height="512" viewBox="0 0 510.033 510.033" width="512" xmlns="http://www.w3.org/2000/svg"><path id="XMLID_132_" d="m270.033 346.294h-30v-19.659h-240.033v65.382h510.033v-65.382h-240z"/><path id="XMLID_206_" d="m178.557 114.086c0-2.006-.47-3.474-1.437-4.489-.939-.985-2.323-1.465-4.227-1.465h-6.245v12.199h6.245c1.886 0 3.259-.5 4.196-1.53.988-1.083 1.468-2.625 1.468-4.715z"/><path id="XMLID_221_" d="m0 30.398v266.236h510.033v-266.236zm214.445 56.662h26.504v26.384h17.05v-26.384h26.504v71.997h-26.504v-24.541h-17.05v24.541h-26.504zm-47.797 71.997h-26.504v-71.997h33.913c9.313 0 16.676 2.304 21.88 6.847 5.281 4.614 7.959 11.174 7.959 19.5 0 8.749-2.659 15.684-7.904 20.614-5.212 4.898-12.591 7.382-21.935 7.382h-7.409zm58.844 64.4-23.218 8.669 23.218 8.67v23.828l-52.62-21.163v-22.671l52.62-21.163zm1.94 54.088 34.805-96.27h26.742l-34.805 96.27zm111.839-35.053-52.62 21.162v-23.828l23.217-8.67-23.217-8.67v-23.828l52.62 21.162zm14.538-108.471c-5.212 4.898-12.591 7.382-21.935 7.382h-7.409v17.654h-26.504v-71.997h33.913c9.313 0 16.676 2.304 21.88 6.847 5.281 4.614 7.959 11.174 7.959 19.5 0 8.749-2.659 15.684-7.904 20.614z"/><path id="XMLID_245_" d="m330.71 108.132h-6.245v12.199h6.245c1.886 0 3.259-.5 4.196-1.53.987-1.083 1.467-2.625 1.467-4.715 0-2.006-.47-3.474-1.437-4.489-.939-.985-2.323-1.465-4.226-1.465z"/><path id="XMLID_246_" d="m268.928 422.017h-30v27.618h-149.914v30h332.006v-30h-152.092z"/></svg>